<svg id="Layer_1" data-name="Layer 1" xmlns="http://www.w3.org/2000/svg" viewBox="0 0 842.83 248.11"><defs><style>.cls-1{fill:#ff9f20;}.cls-1,.cls-2{fill-rule:evenodd;}.cls-2{fill:#ff6746;}.cls-3{fill:#fff;}</style></defs><path class="cls-1" d="M299.28,38.84a9.84,9.84,0,0,1,0-13.91L323.71.51l24.43,24.42a9.84,9.84,0,0,1-13.91,13.91L323.71,28.31,313.18,38.84A9.83,9.83,0,0,1,299.28,38.84Z"/><path class="cls-2" d="M651.64,39.48a9.83,9.83,0,0,1,0-13.9L676.07,1.15,700.5,25.58a9.83,9.83,0,1,1-13.91,13.9L676.07,29,665.54,39.48A9.83,9.83,0,0,1,651.64,39.48Z"/><path class="cls-3" d="M722,230.81a16.17,16.17,0,0,1-5-5.77,11.16,11.16,0,0,1-1.31-5,12.16,12.16,0,0,1,3.15-8.12,10.85,10.85,0,0,1,8.38-3.41,11.78,11.78,0,0,1,4.2.79,19.72,19.72,0,0,1,5.24,2.88q18.36,14.42,37.75,14.42,12.32,0,20.71-3.67a32,32,0,0,0,13.37-9.7,34.25,34.25,0,0,0,7.34-14.42,66.67,66.67,0,0,0,2.36-18.09v-16h-.52a43.76,43.76,0,0,1-18.62,16,58.76,58.76,0,0,1-25.16,5.51,66.11,66.11,0,0,1-26-5,58.32,58.32,0,0,1-19.66-13.64,61.54,61.54,0,0,1-12.58-20.18,73.23,73.23,0,0,1,0-50.33,61,61,0,0,1,12.58-20.45,56.79,56.79,0,0,1,19.66-13.9,61.48,61.48,0,0,1,25.69-5.24,58.13,58.13,0,0,1,25.43,5.77,43.83,43.83,0,0,1,19.4,17.56H819V72a15.2,15.2,0,0,1,1.31-6.82,10.52,10.52,0,0,1,3.14-3.93,15.85,15.85,0,0,1,3.93-1.83,15.49,15.49,0,0,1,3.67-.53,14.67,14.67,0,0,1,3.41.53,11.68,11.68,0,0,1,3.94,1.83,10.52,10.52,0,0,1,3.14,3.93A15.2,15.2,0,0,1,842.83,72v107a96.61,96.61,0,0,1-3.41,26,55.4,55.4,0,0,1-11.53,22,57.26,57.26,0,0,1-21.23,15.47q-13.11,5.76-32.51,5.76a89.16,89.16,0,0,1-28.31-4.71A72.22,72.22,0,0,1,722,230.81Zm14.68-109a52,52,0,0,0,2.62,16.51,44.1,44.1,0,0,0,8.13,13.9,42.71,42.71,0,0,0,13.11,9.7,39.36,39.36,0,0,0,17.3,3.67,43.08,43.08,0,0,0,17.3-3.41A40.41,40.41,0,0,0,808.49,153a41.63,41.63,0,0,0,8.39-13.89,47.44,47.44,0,0,0,3.15-17.3A44.71,44.71,0,0,0,816.88,105a39.66,39.66,0,0,0-8.65-13.89A42.26,42.26,0,0,0,777.82,78a41.06,41.06,0,0,0-30.41,13.11A40.48,40.48,0,0,0,739.28,105,52.94,52.94,0,0,0,736.66,121.76Z"/><path class="cls-3" d="M688.35,173.66a16.06,16.06,0,0,1-1.31,7.08,10.84,10.84,0,0,1-7.35,6,13,13,0,0,1-7.34,0,14.82,14.82,0,0,1-4.19-1.83,13.2,13.2,0,0,1-3.14-4.2,15.9,15.9,0,0,1-1.32-7.08V72.47A15.18,15.18,0,0,1,665,65.66a10.24,10.24,0,0,1,3.14-4.2,12,12,0,0,1,4.19-2.09,13,13,0,0,1,7.34,0,9.74,9.74,0,0,1,3.94,2.09,9.37,9.37,0,0,1,3.41,4.2,15.33,15.33,0,0,1,1.31,6.81Z"/><path class="cls-3" d="M523.08,122.81a54.19,54.19,0,0,0,2.62,16.77A42.72,42.72,0,0,0,533.57,154a37.19,37.19,0,0,0,30.67,13.9,38.79,38.79,0,0,0,17-3.67,42,42,0,0,0,13.37-9.7A44.21,44.21,0,0,0,603,140.11,47.81,47.81,0,0,0,603,106a44.21,44.21,0,0,0-8.39-14.42,40.24,40.24,0,0,0-13.37-10,38.66,38.66,0,0,0-17-3.67,40.55,40.55,0,0,0-17.83,3.67,38,38,0,0,0-12.84,10A42.81,42.81,0,0,0,525.7,106,54.26,54.26,0,0,0,523.08,122.81Zm106.17,51.38a15.3,15.3,0,0,1-1.31,6.81,10.4,10.4,0,0,1-3.15,3.94,11.55,11.55,0,0,1-3.93,1.83,14.65,14.65,0,0,1-3.41.52,15.36,15.36,0,0,1-3.67-.52,15.85,15.85,0,0,1-3.93-1.83A10.59,10.59,0,0,1,606.7,181a15.3,15.3,0,0,1-1.31-6.81v-8.65h-.52a46.63,46.63,0,0,1-19.4,17.3A58.27,58.27,0,0,1,560,188.61a64.68,64.68,0,0,1-25.95-5,59.62,59.62,0,0,1-19.66-14.15,63.24,63.24,0,0,1-12.58-21,73.34,73.34,0,0,1-4.46-25.69,71.15,71.15,0,0,1,4.46-25.43,63.24,63.24,0,0,1,12.58-21,59.19,59.19,0,0,1,19.92-13.9,63.5,63.5,0,0,1,25.43-5q15.21,0,26.48,6.56a53.48,53.48,0,0,1,17.82,15.46h.53V14a15.2,15.2,0,0,1,1.31-6.82A10.14,10.14,0,0,1,609.06,3a11.83,11.83,0,0,1,4.2-2.1,13.21,13.21,0,0,1,7.34,0A9.55,9.55,0,0,1,624.53,3a9.22,9.22,0,0,1,3.41,4.19A15.34,15.34,0,0,1,629.25,14Z"/><path class="cls-3" d="M391.82,81.39h.79a35.8,35.8,0,0,1,6.29-9.18,44.05,44.05,0,0,1,9.44-7.6,43.15,43.15,0,0,1,11.53-5.24A46.4,46.4,0,0,1,433,57.53q12.06,0,20.71,4.2a40.69,40.69,0,0,1,14.42,10.74,42.48,42.48,0,0,1,8.38,16,65,65,0,0,1,2.89,19.66v65.53a16.06,16.06,0,0,1-1.31,7.08,10.85,10.85,0,0,1-7.34,6,13,13,0,0,1-7.34,0,14.75,14.75,0,0,1-4.2-1.83,13.2,13.2,0,0,1-3.14-4.2,15.92,15.92,0,0,1-1.31-7.08V116.25a76.64,76.64,0,0,0-1.31-14.42,32.83,32.83,0,0,0-4.2-12,23.31,23.31,0,0,0-8.65-8.39q-5.5-3.15-14.16-3.15a30.06,30.06,0,0,0-24.11,11.27q-9.18,11-9.18,29.63v54.52a15.92,15.92,0,0,1-1.31,7.08,10.85,10.85,0,0,1-7.34,6,13,13,0,0,1-7.34,0,14.7,14.7,0,0,1-4.19-1.83,13.22,13.22,0,0,1-3.15-4.2,16.06,16.06,0,0,1-1.31-7.08V72a15.34,15.34,0,0,1,1.31-6.82A10.53,10.53,0,0,1,373,61.2a12.11,12.11,0,0,1,3.67-1.83,15.42,15.42,0,0,1,3.67-.53,14.11,14.11,0,0,1,7.08,2.36,10.52,10.52,0,0,1,3.14,3.93A15.2,15.2,0,0,1,391.82,72Z"/><path class="cls-3" d="M336.48,173.66a16.06,16.06,0,0,1-1.31,7.08,10.85,10.85,0,0,1-7.34,6,13,13,0,0,1-7.34,0,14.75,14.75,0,0,1-4.2-1.83,13.2,13.2,0,0,1-3.14-4.2,15.92,15.92,0,0,1-1.31-7.08V72.47a15.19,15.19,0,0,1,1.31-6.81,10.24,10.24,0,0,1,3.14-4.2,12,12,0,0,1,4.2-2.09,13,13,0,0,1,7.34,0,9.77,9.77,0,0,1,3.93,2.09,9.37,9.37,0,0,1,3.41,4.2,15.33,15.33,0,0,1,1.31,6.81Z"/><path class="cls-3" d="M254.22,173.93q-2.88,8.38-7.86,11a19.63,19.63,0,0,1-8.65,2.36,21.29,21.29,0,0,1-8.92-2.36q-4.71-2.62-7.6-11L193.4,91.61h-.52l-27.26,82.32a20.85,20.85,0,0,1-3.41,6.81,19.85,19.85,0,0,1-4.46,4.2,14.25,14.25,0,0,1-4.45,1.83,16.28,16.28,0,0,1-3.94.53,21.25,21.25,0,0,1-8.91-2.36q-5-2.62-7.86-11L99.29,76.41a18.37,18.37,0,0,1-1.05-5.77A10.81,10.81,0,0,1,101.91,62a13.23,13.23,0,0,1,8.92-3.15,11.64,11.64,0,0,1,6.55,2.1q3.41,1.83,5.51,8.39l26.74,86.51h.52l28-84.15q2.88-8.39,7.34-10.49a15.17,15.17,0,0,1,16.25,0q4.46,2.1,7.34,10.49l28.05,84.15h.53l26.74-86.77q2.08-6.3,5.24-8.13a12.53,12.53,0,0,1,6.55-2.1A12.23,12.23,0,0,1,284.89,62a10.49,10.49,0,0,1,3.68,8.39A20.68,20.68,0,0,1,288.3,73a32.43,32.43,0,0,1-.78,3.41Z"/><path class="cls-3" d="M78.12,184.41q-6.28,2.88-16,2.89-17.82,0-27-9.7Q26,167.63,26,148.5V81.13H11.53a14.87,14.87,0,0,1-6-1A10.5,10.5,0,0,1,2.1,77.46,6.7,6.7,0,0,1,.52,74.31,11.67,11.67,0,0,1,0,71.16a9.16,9.16,0,0,1,.52-2.88A6.79,6.79,0,0,1,2.1,64.87a10.37,10.37,0,0,1,3.41-2.62,12.34,12.34,0,0,1,6-1.31H26V13.63a15.3,15.3,0,0,1,1.31-6.81,10.27,10.27,0,0,1,3.15-4.2A11.87,11.87,0,0,1,34.6.52,15.42,15.42,0,0,1,38.27,0a12.41,12.41,0,0,1,3.41.52,9.55,9.55,0,0,1,3.93,2.1A9.25,9.25,0,0,1,49,6.82a15.16,15.16,0,0,1,1.31,6.81V60.94H74.19A10.85,10.85,0,0,1,80,62.25a7.68,7.68,0,0,1,3.41,2.62,6.79,6.79,0,0,1,1.58,3.41,9.16,9.16,0,0,1,.52,2.88,11.67,11.67,0,0,1-.52,3.15,6.7,6.7,0,0,1-1.58,3.15A7.75,7.75,0,0,1,80,80.08a13,13,0,0,1-5.76,1H50.33v64.75q0,11.53,3.93,16.25a14.44,14.44,0,0,0,11,4.46,23.36,23.36,0,0,0,5.51-.79,15.78,15.78,0,0,1,4.46-.79,9,9,0,0,1,7.07,2.89,9.78,9.78,0,0,1,2.63,6.81,10.56,10.56,0,0,1-1.58,5.51A13.17,13.17,0,0,1,78.12,184.41Z"/></svg>